# xmcd CD database file
#
# Track frame offsets:
#	150
#	14290
#	32600
#	68532
#	87115
#	109425
#	137952
#	169060
#	191537
#	222197
#	246500
#	271587
#
# Disc length: 3975 seconds
#
# Revision: 1
# Processed by: cddbd v1.4PL0 Copyright (c) Steve Scherf et al.
# Submitted via: CDex 1.50Beta7
#
DISCID=a30f850c
DTITLE=Various Artist - Late Night Jazz - Disc 2
DYEAR=2000
DGENRE=Jazz
TTITLE0=Ruby, My Dear - Thelonious Monk
TTITLE1=It Never Entered My Mind - Miles Davis and John Coltrane
TTITLE2=Yams - Jackie McLean and Herbie Hancock
TTITLE3=Dancing in the Dark - Cannonball Adderley and Miles Davis
TTITLE4=Waltz for Debby - Earl Klugh
TTITLE5=It Might as well be Spring - Ike Quebec
TTITLE6=Am I Blue - Grant Green
TTITLE7=Strollin - Horace Silver
TTITLE8=Cry Me a River - Blue Mitchell
TTITLE9=I uess I'll Hang My Tears Out to Dry - Dexter Gordon
TTITLE10=Lazy Afternoon - Pete La Roca and Joe Henderson
TTITLE11=Sweet Slumber - Lou Donaldson
EXTD=YEAR: 2000
EXTT0=
EXTT1=
EXTT2=
EXTT3=
EXTT4=
EXTT5=
EXTT6=
EXTT7=
EXTT8=
EXTT9=
EXTT10=
EXTT11=
PLAYORDER=
